/* XPM */
static char *_8d856fdce4544e3fe8e2dea7e263a22RnBlOOZeuGsWEJ08[] = {
/* columns rows colors chars-per-pixel */
"33 33 117 2 ",
"   c None",
".  c #F78F13",
"X  c #F79116",
"o  c #F7931A",
"O  c #F9951B",
"+  c #F79622",
"@  c #FA9721",
"#  c #F69927",
"$  c #F3972B",
"%  c #F4992B",
"&  c #F89B2B",
"*  c #EF9D3C",
"=  c #F39B33",
"-  c #F89E32",
";  c #F19E3B",
":  c #F8A136",
">  c #F8A33B",
",  c #EC9F43",
"<  c #ECA145",
"1  c #EDA54F",
"2  c #F1A242",
"3  c #F8A641",
"4  c #F9A846",
"5  c #F9AC4E",
"6  c #E7A455",
"7  c #ECA651",
"8  c #E4A65B",
"9  c #F9AD52",
"0  c #F9B057",
"q  c #F9B159",
"w  c #DFAB6B",
"e  c #DEAE75",
"r  c #DAAD78",
"t  c #DCB17F",
"y  c #E8AD66",
"u  c #E6AE6C",
"i  c #FAB766",
"p  c #FAB96C",
"a  c #E2AF74",
"s  c #E2B179",
"d  c #FABD74",
"f  c #FBC27D",
"g  c #DDB382",
"h  c #D6B48B",
"j  c #DABE9C",
"k  c #E1B583",
"l  c #CBBFAD",
"z  c #D8BFA0",
"x  c #C7BEB4",
"c  c #C8BFB4",
"v  c #FBC483",
"b  c #FBC98D",
"n  c #FBCE97",
"m  c #FBCF99",
"M  c #D5C2AC",
"N  c #C7C0B5",
"B  c #C5C1BB",
"V  c #CDC6BC",
"C  c #CFC9BF",
"Z  c #D1C5B7",
"A  c #D1C8B9",
"S  c #FCD4A4",
"D  c #FCD9AE",
"F  c #FCDCB4",
"G  c #FDDFBB",
"H  c #FDE0BE",
"J  c #C3C3C2",
"K  c #CAC7C2",
"L  c #CDCAC5",
"P  c gray79",
"I  c #CCCCCB",
"U  c gray80",
"Y  c #CCCCCC",
"T  c #FDE2C1",
"R  c #FDE4C5",
"E  c #FDE4C6",
"W  c #FDE6CA",
"Q  c #FDE6CB",
"!  c #FDE7CB",
"~  c #FDE7CC",
"^  c #FDE7CD",
"/  c #FDE8CD",
"(  c #FDE8CF",
")  c #FDE9D0",
"_  c #FDE9D1",
"`  c #FDEAD3",
"'  c #FEEBD4",
"]  c #FEECD7",
"[  c #FEEDD8",
"{  c #FEEFDD",
"}  c #FEF0DF",
"|  c #FEF0E0",
" . c #FEF1E1",
".. c #FEF1E2",
"X. c #FEF2E4",
"o. c #FEF3E6",
"O. c #FEF4E7",
"+. c #FEF4E8",
"@. c #FEF5EA",
"#. c #FEF7ED",
"$. c #FEF7EE",
"%. c #FEF7EF",
"&. c #FEF8F0",
"*. c #FFF9F2",
"=. c #FFF9F3",
"-. c #FFFAF4",
";. c #FFFAF5",
":. c #FFFBF6",
">. c #FFFBF7",
",. c #FFFDFA",
"<. c #FFFDFB",
"1. c #FFFDFC",
"2. c #FFFEFC",
"3. c #FFFEFD",
"4. c #FFFEFE",
"5. c #FFFFFE",
"6. c white",
/* pixels */
"                          O O O O O O O O                         ",
"U U U U U U U P P L k > + O o o o o o o O O : t V U U U U U U U   ",
"U U U U I I P J h = O o o o O o o o o o o o o O $ g U U U U U U   ",
"U U U U U P J 8 O o o o o o o o o o o o o o o o o O 7 A U U U U   ",
"U U U U P c < O o o o o o o o o o o o o o o o o O o o ; A I U U   ",
"U U U P J < O o o o o o o o o o : & o o X o o o o o o o ; K U U   ",
"U U P J 8 O o o o o o o X o o + F R - 4 5 + o o o o o o O 7 U U   ",
"U P J h + o o o o o o o > & o : O.! & F X.> o o o o o o O O s U   ",
"P J J = o o o o o o o - ( ] S S 1.S > X./ & o o o o o o o o & V   ",
"P J g O o o o o o o o ; H -.1.1.1.+.W 1.F + X o o o o o o o o u   ",
"Y P * o o o o o o o o o + d 1.1.1.,.1.1.-.G 0 o o o o o o o o =   ",
"Y M + o o o o o o o o o X i 1.1.] q v / 1.1.#.p o o o o o o o o @ ",
"U s O o o o o o o o o o o n 1.1.S X X & F 1.1.( & o o o o o o o O ",
"U 7 O o o o o o o o o o @ R 1.1.p X X X v 1.1...- o o o o o o o O ",
"U ; o o o o o o o o o X > +.1.1.m 9 > 0 ( 1.1.H + X o o o o o o O ",
"U = o o o o o o o o o o i 1.1.1.1.,.#.-.1.1.} 0 o o o o o o o o O ",
"Y = o o o o o o o o o X m 1.1.F f D O.1.2.,.f o o o o o o o o o O ",
"Y > o o o o o o o o X + R 1.1.d . o > D 2.2.X.9 X o o o o o o o O ",
"U 7 O o o o o o o & 3 9 %.1.%.4 X o o > X.2.2.n o o o o o o o o O ",
"I t o o o o o o X v #.+.1.1.] : X X X 4 #.2.2.n X o o o o o o o O ",
"I M @ o o o o o + S -.1.1.1.,.~ S v b ` 1.1.2.p X o o o o o o O + ",
"I I : o o o o o o # 3 p ` 1.-.1.1.1.1.1.1.1.T & o o o o o o o =   ",
"Y Y g O o o o o o o X O G &.i F 1.} } +...S > o o o o o o o O u   ",
"Y P x = o o o o o o X > +.~ # F -.9 & > - O o O o o o o o o & V   ",
"P J J h + o o o o o X - S v - ..` # o o o o o o o o o o o O e P   ",
"P J J J 8 o o o o o o o O O # d p o o o o o o o o o o o O , J P   ",
"Y P J J c , o o o o o o o o o o o o o o o o o o o o o o = x P U   ",
"Y U P J J x , o o o o o o o o o o o o o o o o o o o o = N P U U   ",
"U U U P J J B 6 O o o o o o o o o o o o o o o o O O < N P I I U   ",
"U U U U P J J J h % o o o o o o o o o o o o o o & r J P I I U U   ",
"U U U U U P J J J B e : + O o o o o o o O O $ w x J P U U U U U   ",
"U U U U U U P J J P U I z u < $ $ # - 2 y z K J J P U U U U U U   ",
"U U U U U U U P P U U U U U U U U U U U U U U P P U U U U U U U   "
};
