/* XPM */
static char *_56b57f5e63045f0a1a2296c77ad9be5uimt6DWYhK3066A6[] = {
/* columns rows colors chars-per-pixel */
"32 32 164 2 ",
"   c #F79014",
".  c #F79116",
"X  c #F79117",
"o  c #F79217",
"O  c #F79218",
"+  c #F79219",
"@  c #F79319",
"#  c #F7931A",
"$  c #F7931B",
"%  c #F7941B",
"&  c #F7941C",
"*  c #F6941D",
"=  c #F7941D",
"-  c #F7951E",
";  c #F7951F",
":  c #F7961F",
">  c #F79620",
",  c #F79621",
"<  c #F49523",
"1  c #F79722",
"2  c #F79723",
"3  c #F49624",
"4  c #F79824",
"5  c #F79826",
"6  c #F79927",
"7  c #F89927",
"8  c #F39728",
"9  c #F89A28",
"0  c #F89A29",
"q  c #F89B2A",
"w  c #F89B2B",
"e  c #F89B2C",
"r  c #F89C2C",
"t  c #F89D2F",
"y  c #F29B31",
"u  c #F39B31",
"i  c #F09B33",
"p  c #F09B34",
"a  c #F19B34",
"s  c #F19C35",
"d  c #F89F33",
"f  c #F89F34",
"g  c #F8A239",
"h  c #F8A23A",
"j  c #F8A23B",
"k  c #F8A33B",
"l  c #F8A33C",
"z  c #EB9F42",
"x  c #F8A540",
"c  c #F8A642",
"v  c #F9A744",
"b  c #F9A846",
"n  c #F9AB4D",
"m  c #E9A653",
"M  c #F9AE52",
"N  c #F9AE53",
"B  c #F9AE54",
"V  c #F9AF54",
"C  c #F9AF55",
"Z  c #F9AF56",
"A  c #F9B158",
"S  c #F9B159",
"D  c #F9B45F",
"F  c #DFA967",
"G  c #DFAA68",
"H  c #E5A960",
"J  c #FAB867",
"K  c #FAB96A",
"L  c #FAB96B",
"P  c #FABA6C",
"I  c #FABC70",
"U  c #FABC71",
"Y  c #FABD72",
"T  c #FAC17B",
"R  c #DFB480",
"E  c #DFB580",
"W  c #DFB581",
"Q  c #CEB89D",
"!  c #CEB89E",
"~  c #CEB99E",
"^  c #CEB99F",
"/  c #CFB99F",
"(  c #D1B899",
")  c #C8BEB1",
"_  c #C8BEB2",
"`  c #FBC380",
"'  c #FBC481",
"]  c #FBC483",
"[  c #FBC585",
"{  c #FBC789",
"}  c #FBC88A",
"|  c #FBCB91",
" . c #FBCC92",
".. c #FBCD94",
"X. c #FBCD96",
"o. c #FBCE96",
"O. c #FCCF9A",
"+. c #FCD09A",
"@. c #FCD09B",
"#. c #FCD09C",
"$. c #FCD19C",
"%. c #FCD19D",
"&. c #D4C3AE",
"*. c #FCD2A0",
"=. c #FCD3A1",
"-. c #FCD3A2",
";. c #FCD4A3",
":. c #FCD5A5",
">. c #FCD5A6",
",. c #FCD5A7",
"<. c #FCD6A9",
"1. c #FCD8AC",
"2. c #FCD8AD",
"3. c #FDDDB7",
"4. c #FDDDB8",
"5. c #FDDEB8",
"6. c #FDDEB9",
"7. c #FDDFBA",
"8. c #FDDFBB",
"9. c #FDE0BC",
"0. c #FDE0BE",
"q. c #FDE1BF",
"w. c #C3C2C1",
"e. c gray79",
"r. c #CDCCCA",
"t. c gray80",
"y. c #FDE2C1",
"u. c #FDE2C2",
"i. c #FDE3C4",
"p. c #FDE5C7",
"a. c #FDE6C9",
"s. c #FDE6CA",
"d. c #FDE7CD",
"f. c #FDE8CD",
"g. c #FDE8CF",
"h. c #FDE9D0",
"j. c #FEEBD4",
"k. c #FEEBD5",
"l. c #FEEDD9",
"z. c #FEF0DF",
"x. c #FEF1E1",
"c. c #FEF1E2",
"v. c #FEF2E2",
"b. c #FEF2E4",
"n. c #FEF3E5",
"m. c #FEF5EA",
"M. c #FEF6EB",
"N. c #FEF6EC",
"B. c #FEF6ED",
"V. c #FEF7EE",
"C. c #FEF7EF",
"Z. c #FFF9F2",
"A. c #FFF9F3",
"S. c #FFFAF5",
"D. c #FFFBF6",
"F. c #FFFBF7",
"G. c #FFFCF8",
"H. c #FFFDFA",
"J. c #FFFDFB",
"K. c #FFFEFC",
"L. c #FFFEFD",
"P. c #FFFEFE",
"I. c #FFFFFE",
"U. c white",
/* pixels */
"t.t.t.t.t.t.t.e.e.e.&.W m s > * * 3 p m W &.t.e.e.t.t.t.t.t.t.t.",
"t.t.t.t.t.t.e.w./ H y * # % # # # # # # * u H / w.e.t.t.t.t.t.t.",
"t.t.t.t.t.e.) G 8 # # # # # # # # # # # $ @ $ 8 H _ e.t.t.t.t.t.",
"t.t.t.t.e./ z # # # # # # # # # # # # # @ $ @ @ * z / e.t.t.t.t.",
"t.t.t.e.( p # # # # # # # # # # # # @ @ @ $ @ $ # # p ( e.t.t.t.",
"t.t.e./ p # # # # # # # # # # > > # @ @ $ @ $ @ # # # p / e.t.t.",
"t.e.) z # # # # # # # # # # # ] 0.c w k , @ @ $ # # # # z _ e.t.",
"e.w.F # # # # # # # # 6 > X > u.B.l T n.S @ @ @ # # # # * G w.e.",
"e./ 8 # $ @ $ @ $ $ , >.u.} Y B.p.w 3.D.b X # # # # # # # 8 Q e.",
"r.H # # @ $ @ $ @ @ w y.J.J.J.J.n.>.m.k.w X # # # # # # # # H e.",
"&.y # # $ @ $ @ @ @ $ d Y Z.J.J.J.J.J.D.<.n # # # # # # $ @ y &.",
"W * # # @ $ @ $ $ @ @   x Z.J.Z.[ %.l.J.J.m.I # # # # # @ @ * R ",
"m # $ @ $ @ $ @ @ $ @ @ L J.J.h.4 X g <.J.J.n.k @ $ @ $ $ @ $ m ",
"s # @ $ @ $ @ $ $ @ @ @ O.J.J.%.# #   C J.J.G.C @ @ $ @ @ $ $ p ",
"3 @ @ @ $ @ $ @ @ $ @ 5 d.J.J.+.g 4 w  .J.J.m.c @ @ @ $ @ $ @ 3 ",
"* @ @ $ @ $ @ $ $ @ @ c B.J.J.J.c.g.j.G.J.J.O.$ @ @ $ @ $ @ $ $ ",
"* # # # # # # # % % X P J.J.z.;.g.D.J.J.J.>.w # # # # # # # # % ",
"> # # # # # # # # X % %.J.J.%.X 4 C 9.J.J.n.A X # # # # # # * > ",
"s # # # # # # # % 4 6 d.J.J.Y X # X d g.J.J.4.* # # # # # # # p ",
"m # # # # # # X N y.0.G.J.Z.b X X X > y.J.J.s.7 # # # # # # # m ",
"W * # # # # # # ..J.J.J.J.G.>.Y N N ..D.J.J.>.@ # # # # # # * W ",
"&.y # # # # # # l L %.l.J.J.J.J.D.G.J.J.J.D.S @ # # # # # # y &.",
"t.m # # # # # # # X # ..J.;.0.J.G.G.J.G.n.T = @ # # # # # # H r.",
"e./ 8 # # # # # # % > y.B.k ] J.} C J D l * @ @ # # # # # 8 / e.",
"e.w.G * * # # # # # 6 0.4.w 4.D.b   X X # # # # # # # # # F w.e.",
"t.e._ z * # # # # # * r d 7  .2.6 X # # # # # # # # # # z _ e.t.",
"t.t.e.^ i # # # # # # # X # % > % # # # # # # # # # # p / e.t.t.",
"t.t.t.e.( p # # # # # # # # # # # # # # # # # # # # p ( e.t.t.t.",
"t.t.t.t.e./ z # # # # # # # # # # # # # # # # # # z / e.t.t.t.t.",
"t.t.t.t.t.e._ F 8 # # # # # # # # # # # # * # 8 F _ e.t.t.t.t.t.",
"t.t.t.t.t.t.e.w./ H y * # # # # # # # # < y m / w.e.t.t.t.t.t.t.",
"t.t.t.t.t.t.t.e.e.r.&.W m s 3 % * < s m W &.t.e.e.t.t.t.t.t.t.t."
};
