/* XPM */
static char *result[] = {
/* columns rows colors chars-per-pixel */
"32 32 18 1 ",
"  c #211F30",
". c #843346",
"X c #A14744",
"o c #B96E54",
"O c #E68D41",
"+ c #CF9E6E",
"@ c #F2BC7E",
"# c #EA71BD",
"$ c #2FACDA",
"% c #6CD9F1",
"& c #E4C997",
"* c #FBDFB1",
"= c #F89CC0",
"- c gray76",
"; c #C3C3C3",
": c gray79",
"> c gray80",
", c white",
/* pixels */
">>>>>>>::>>>>>>>>>>>>>>::>>>>>>>",
">>>>>>:;;:>>>>>>>>>>>>:;;:>>>>>>",
">>>>>:;--;:> >>> >>> :;- ;:>>>>>",
">>>>:;----; % > = > % - = ;:>>>>",
">>>:;----- $%% #== $%% #== ;:>>>",
">>:;----   $%% #== $%% #==   :>>",
">:;---- == $%% #== $%% #== %% :>",
":;----- ==# $   #   $   # $%% ;:",
":;------ ##               $$ -;:",
">:;------  X.&&+ X.oo+ +&&  -;:>",
">>:;---- O X.+++ X.oo+ +++ -;:>>",
">>>:;-- @O o...+ X.ooo +.. ;:>>>",
">>>>:;- @O o.,,. X.oo+ .,, :>>>>",
">>>>>: @@O o.,,. X.ooo .,, >>>>>",
">>>>>> @@O o...  X.ooo  .. >>>>>",
">>>>>> @@O o.+ , X.ooo , + >>>>>",
">>>>>> @@O o.+ . ..XXX X + >>>>>",
">>>>>> O@O o.+ ..     .X + >>>>>",
">>>>>:  @O X.+ ,,,.,,,,, + >>>>>",
">>>>: O OO X.o+         +o  >>>>",
">>>:; O@ OO X.ooooooooooo O :>>>",
">>:;- O@@  O             OO ;:>>",
">:;--- OO@@@OOOOOOOOOOO OO --;:>",
":;-----    @@@@@@@@@@@@   ----;:",
":;------- O@@@@@@@*@**@ ------;:",
">:;------ O@@@@@@@@@**@ -----;:>",
">>:;----- O@@@@ @@@@@@@ ----;:>>",
">>>:;----- OO@@    O@@@O --;:>>>",
">>>>:;----; O@@ >>>  @@@ -;:>>>>",
">>>>>:;--;:>   >>>> O@@@ ;:>>>>>",
">>>>>>:;;:>>>>>>>>>> O@@ :>>>>>>",
">>>>>>>::>>>>>>>>>>>>   :>>>>>>>"
};
