/* XPM */
static char *cf3fce6adac34c158cd20e1da558c6e2y1HgJbtpAV8RqiRF[] = {
/* columns rows colors chars-per-pixel */
"32 32 114 2 ",
"   c #067E58",
".  c #077E58",
"X  c #067F58",
"o  c #077F58",
"O  c #088059",
"+  c #098059",
"@  c #0A815A",
"#  c #0B815B",
"$  c #0C825B",
"%  c #0D825C",
"&  c #0E835D",
"*  c #0F835D",
"=  c #10845E",
"-  c #12845F",
";  c #12855F",
":  c #128460",
">  c #138560",
",  c #148560",
"<  c #148561",
"1  c #148661",
"2  c #178762",
"3  c #188863",
"4  c #188864",
"5  c #1A8965",
"6  c #1B8965",
"7  c #1B8966",
"8  c #1B8A66",
"9  c #1C8966",
"0  c #1C8A66",
"q  c #1C8A67",
"w  c #1D8A67",
"e  c #1F8B68",
"r  c #1F8B69",
"t  c #1F8C69",
"y  c #208C69",
"u  c #218C69",
"i  c #218C6A",
"p  c #238D6B",
"a  c #248E6C",
"s  c #278F6D",
"d  c #2A916F",
"f  c #2B9170",
"g  c #2B9270",
"h  c #2C9271",
"j  c #2D9271",
"k  c #2F9372",
"l  c #319474",
"z  c #359777",
"x  c #369778",
"c  c #379878",
"v  c #39997A",
"b  c #3A997A",
"n  c #3F9C7D",
"m  c #419C7F",
"M  c #449E81",
"N  c #459F82",
"B  c #469F82",
"V  c #49A184",
"C  c #4AA185",
"Z  c #4CA386",
"A  c #4CA287",
"S  c #4DA387",
"D  c #4EA487",
"F  c #4EA388",
"G  c #4FA489",
"H  c #50A489",
"J  c #54A78B",
"K  c #58A88E",
"L  c #5FAC94",
"P  c #64AF97",
"I  c #67B099",
"U  c #68B199",
"Y  c #6BB39B",
"T  c #71B59F",
"R  c #71B6A0",
"E  c #72B6A0",
"W  c #73B6A0",
"Q  c #74B7A2",
"!  c #76B8A2",
"~  c #79BAA5",
"^  c #7ABAA5",
"/  c #7BBAA6",
"(  c #7DBCA8",
")  c #7EBCA8",
"_  c #7FBDA9",
"`  c #84BFAC",
"'  c #85C0AD",
"]  c #86C0AD",
"[  c #86C1AE",
"{  c #87C1AE",
"}  c #87C1AF",
"|  c #88C2AF",
" . c #89C2B0",
".. c #8AC2B0",
"X. c #8BC3B1",
"o. c #8CC3B2",
"O. c #8CC4B2",
"+. c #8DC4B2",
"@. c #8FC5B4",
"#. c #91C6B5",
"$. c #96C9B8",
"%. c #97C9B9",
"&. c #98CABA",
"*. c #9ACBBB",
"=. c #9CCCBC",
"-. c #9ECDBE",
";. c #9FCDBE",
":. c #A0CEBF",
">. c #A3CFC1",
",. c #A9D2C5",
"<. c gray76",
"1. c #C3C3C3",
"2. c gray79",
"3. c gray80",
/* pixels */
"3.3.3.3.3.3.3.2.2.3.3.3.3.3.3.3.3.3.3.3.3.3.3.2.2.3.3.3.3.3.3.3.",
"3.3.3.3.3.3.2.1.1.2.3.3.3.3.3.3.3.3.3.3.3.3.2.1.1.2.3.3.3.3.3.3.",
"3.3.3.3.2.2.1.1.<.1.2.3.3.3.3.3.3.3.3.3.3.2.1.<.<.1.2.3.3.3.3.3.",
"3.3.3.3.2.1.1.1.<.<.1.2.3.3.3.3.3.3.3.3.2.1.<.<.<.<.1.2.3.3.3.3.",
"3.3.2.2.1.1.1.1.<.<.<.1.2.3.3.3.3.3.3.2.1.<.<.<.<.<.<.1.2.3.3.3.",
"3.2.2.1.1.1.<.<.<.<.<.<.<.2.3.3.3.3.2.1.<.<.<.<.<.<.<.<.1.2.3.3.",
"3.2.1.<.<.<.<.<.<.<.<.<.<.1.2.3.3.2.1.<.<.<.<.<.<.<.<.<.<.1.2.3.",
"1.1.<.<.<.<.<.<.<.<.<.<.<.<.<.<.1.<.<.<.<.<.<.<.<.<.<.<.<.<.<.1.",
"u $ % % $ $ $ $ $ $ $ $ $ $ $ $ = o = o % % % + $ $ $ + $ + $ 3 ",
"7 X o X   O O $ .   o o o o .   o . X . X X = d l d d d d d , , ",
"9 o o o . . l 1.1.$ o o o o .   . . o . X X P X.#.<.<.<.1.1.) , ",
"9 o o o     J 1.1.7 o o O . O . o o o o o o W A   y :.<.1.1.&., ",
"9 O   % G *.#.;.1.  . O . O . O o o o o o o W D o o ` <.1.<.#.- ",
"7 O e 1.1.1.<.<.` $ . . O . O O o o o o o o W A o o | <.<.<.&., ",
"7 O J 1.P 1.1.<.1.#.A c O O   O   M j o X o T D o o ` <.<.<.&.- ",
"7 O ! 1.3 1.1.` P <.<.,.m { | | X.<.<.>.H , W H o o | <.<.<.&.- ",
"9 . d m V <.<.<.u 0 a - Z 1.<.<.<.1.<.<.;.s T D o o ..<.<.<.&., ",
"9 $ u b <.<.<.<.:.$ O o * 9 9 0 e ` ^ j o o W A X o ` <.<.<.&., ",
"u | <.<.<.) 3 <.<.* o o O O . . o o X o o o W D o o ` 1.<.<.&.- ",
"9 V P D z $ z <.^ O O   O   .   o . o o . o W A X o ` 1.<.<.&., ",
"9 O O   O o T <.b O . O . O   O o o o o . o W Y B ) <.<.<.<.&.- ",
"9 O   O . O ^ <.= . O   O . O   o o o X o o x ! ` ....| ` #.B - ",
"3 O O   O . - ; . .   O . . . . o o o . o o o o     . . . . . , ",
"u * * * = = = $ = = = $ = $ = = = = = = = o = = = $ = $ = = = 9 ",
"1.1.<.<.<.<.<.<.<.<.<.<.<.<.1.<.<.<.<.<.<.<.<.<.1.1.<.<.<.<.<.1.",
"3.2.1.1.<.<.<.<.<.<.<.<.<.<.2.3.3.2.<.<.<.<.<.<.<.1.<.<.<.1.2.2.",
"3.3.2.1.<.<.<.<.<.<.<.<.<.2.3.3.3.3.2.<.<.<.<.<.<.<.<.<.<.2.3.3.",
"3.3.3.2.1.<.<.<.<.<.<.<.3.3.3.3.3.3.2.2.2.<.<.<.<.<.<.1.2.3.3.3.",
"3.3.3.3.2.1.<.<.<.<.<.2.3.3.3.3.3.3.3.3.2.<.<.<.<.<.<.2.3.3.3.3.",
"3.3.3.3.3.2.1.<.<.<.3.3.3.3.3.3.3.3.3.3.3.2.<.<.<.<.2.3.3.3.3.3.",
"3.3.3.3.3.3.2.1.<.2.3.3.3.3.3.3.3.3.3.3.3.3.2.<.2.2.3.3.3.3.3.3.",
"3.3.3.3.3.3.3.2.3.3.3.3.3.3.3.3.3.3.3.3.3.3.3.2.2.2.3.3.3.3.3.3."
};
