/* XPM */
static char *_7ca01e89a704f9decf77423fa1d8b7cac15Y5J0zJAqPVyc[] = {
/* columns rows colors chars-per-pixel */
"32 32 217 2 ",
"   c #018C14",
".  c #00811D",
"X  c #029419",
"o  c #00A51D",
"O  c #008D24",
"+  c #008B2C",
"@  c #0B8F2A",
"#  c #108E20",
"$  c #089021",
"%  c #019C26",
"&  c #00942C",
"*  c #08902E",
"=  c #039A2D",
"-  c #069925",
";  c #1A9B25",
":  c #109F2C",
">  c #13962C",
",  c #088F32",
"<  c #1A8331",
"1  c #059232",
"2  c #0B9A35",
"3  c #009C3B",
"4  c #089F38",
"5  c #049735",
"6  c #1D9A35",
"7  c #159B3B",
"8  c #199739",
"9  c #228E39",
"0  c #31983F",
"q  c #00A321",
"w  c #01A32E",
"e  c #02AD2B",
"r  c #04AA24",
"t  c #00BC29",
"y  c #01A333",
"u  c #03AB32",
"i  c #0BA33D",
"p  c #0CAB3C",
"a  c #0AA536",
"s  c #15AD3B",
"d  c #1EAB3B",
"f  c #15AA36",
"g  c #03B53A",
"h  c #20AA3B",
"j  c #0B9B43",
"k  c #039643",
"l  c #129D4B",
"z  c #1A9C46",
"x  c #179E5C",
"c  c #209443",
"v  c #349B40",
"b  c #289853",
"n  c #01A444",
"m  c #04AA44",
"M  c #0CA645",
"N  c #15A54C",
"B  c #15A849",
"V  c #06B946",
"C  c #1AB34B",
"Z  c #1CA450",
"A  c #0AB559",
"S  c #24A445",
"D  c #26AE4A",
"F  c #3AAB4F",
"G  c #24B646",
"H  c #31B748",
"J  c #27A958",
"K  c #24B454",
"L  c #289D66",
"P  c #33AD64",
"I  c #33BA6D",
"U  c #32B073",
"Y  c #43B347",
"T  c #45AF59",
"R  c #649B7B",
"E  c #45BE65",
"W  c #51B468",
"Q  c #4FA777",
"!  c #40A472",
"~  c #4CBB76",
"^  c #11CA4D",
"/  c #2DC65C",
"(  c #37C151",
")  c #33D16E",
"_  c #49C25B",
"`  c #40C16F",
"'  c #55CD78",
"]  c #45D57E",
"[  c #6FCC7C",
"{  c #7AC67E",
"}  c #67BA82",
"|  c #78BF87",
" . c #49C682",
".. c #5ED687",
"X. c #6FC78C",
"o. c #63CC87",
"O. c #78C881",
"+. c #66D38F",
"@. c #70CB92",
"#. c #6BD298",
"$. c #7DD599",
"%. c #7EDF9E",
"&. c #76D987",
"*. c #71E288",
"=. c #67E695",
"-. c #7ED2A8",
";. c #75E4A2",
":. c #7FF2A5",
">. c #84B88C",
",. c #91B88B",
"<. c #84B69B",
"1. c #83C482",
"2. c #88D38E",
"3. c #94D480",
"4. c #83CA95",
"5. c #98C79C",
"6. c #83D495",
"7. c #85DE95",
"8. c #88D39B",
"9. c #8CD89A",
"0. c #98D79E",
"q. c #95D694",
"w. c #8FE689",
"e. c #87E293",
"r. c #A7E195",
"t. c #88CAA8",
"y. c #97D8A5",
"u. c #8CD9B0",
"i. c #9BD5B2",
"p. c #98DABF",
"a. c #88D7AA",
"s. c #A8CAA3",
"d. c #A3DCAD",
"f. c #AAD9AD",
"g. c #B2D7AC",
"h. c #B6D7BA",
"j. c #99E5AA",
"k. c #8BEDB0",
"l. c #9BE4B8",
"z. c #A0E1A4",
"x. c #A8E9AC",
"c. c #B2EEAE",
"v. c #A3F4AF",
"b. c #A6EAB7",
"n. c #B8E5BD",
"m. c #A8F0BE",
"M. c #B9F9BC",
"N. c #ABCE8E",
"B. c #C8D8B3",
"V. c #9ED9C5",
"C. c #BDD3C5",
"Z. c #B8D6C6",
"A. c #ABDACA",
"S. c #8FFAC2",
"D. c #9AF3C3",
"F. c #AAEEC8",
"G. c #BAEBC9",
"H. c #A8F0CB",
"J. c #B4F1C5",
"K. c #B8E9D6",
"L. c #B5F3D8",
"P. c #BBFFE5",
"I. c #CAD7CE",
"U. c #D3DAC7",
"Y. c #C2DDD4",
"T. c #C5E5CB",
"R. c #D4E0CD",
"E. c #D7E9D8",
"W. c #C7FAD7",
"Q. c #DCFEDF",
"!. c #D4FFDB",
"~. c #C4F9CB",
"^. c #EDEECE",
"/. c #E5EEDC",
"(. c #E6FFD6",
"). c #EEFFD8",
"_. c #E4F7DC",
"`. c #F9FFDF",
"'. c #C3EBE0",
"]. c #CEFEE3",
"[. c #C4FBE4",
"{. c #D5FEEA",
"}. c #D3FAE4",
"|. c #DEFCF3",
" X c #DEFFFF",
".X c #D6FBF5",
"XX c #E9EEED",
"oX c #E4EDEC",
"OX c #F9EDE9",
"+X c #E3FBE3",
"@X c #EFF7E8",
"#X c #E5FDEA",
"$X c #EBFDEC",
"%X c #ECF8E4",
"&X c #F4FFE6",
"*X c #FDF5EB",
"=X c #F4FCEC",
"-X c #FEFDEA",
";X c #FBF3E8",
":X c #FFE5F8",
">X c #FFEDFE",
",X c #E9F5F3",
"<X c #E5FEF7",
"1X c #EBFDF3",
"2X c #EFF5FF",
"3X c #E6FDFD",
"4X c #EBFFFD",
"5X c #E7F4FA",
"6X c #FCF4F4",
"7X c #F2FDF2",
"8X c #FEFDF4",
"9X c #F6F3FD",
"0X c #FFF4FE",
"qX c #F3FEFF",
"wX c #FFFFFF",
"eX c #F5F7F2",
"rX c #E4E8F3",
/* pixels */
"wXwXwXwXwXwXwXwXwXwXwXwXwXwXwXwXwXwXwXwXwXwXwXwXwXwXwXwXwXwXwXwX",
"wXwXwXwXwXwXwXwXwXwXwXwXwXwXwXwXwXwXwXwXwXwXwXwXwXwXwXwXwXwXwXwX",
"wXwXwXwXwXwXwXwXwXwXwXwXwXwXwXwXwXwXwXwXwXwXwXwXwXwXwXwXwXwXwXwX",
"wXwXwXwXwXwXwXwXwXwXwXwXwXwXwXwXwXwXwXwXwXwXwXwXwXwXwXwXwXwXwXwX",
"wXwXwXwXwXwXwXwXwXwXwXwXwXwXwXwXwXwXwXwXwXwXwXwXwXwXwXwXwXwXwXwX",
"wXwXwXwXwXwXwXwXwXwXwXwXwXwXwXwXwXwXwXwXwXwXwXwXwXwXwXwXwXwXwXwX",
"wXwXwXwXwXwXwXwXwXwXwXwXwXwXwXwXwXwXwXwXwXwXwXwXwXwXwXwXwXwXwXwX",
"wXwXwXwXwXwXwXwXwXwXwXwXwXwXwXwXwXwXwXwXwXwXwXwXwXwXwXwXwXwXwXwX",
"=XqXwX6X6XwX9X-XqX,XwXqXwXwX X>X>XwX9X0XwX<XqXwX3X0X6X6X4X0X9X0X",
"*X9X4XJ.m.V.K.G.h.T.G.G.C.b.S.#X].H.F.G.T.W.T.R.L.h.b.~.D.6XwXwX",
"wX0X{.+ M -.A.F.I.c.o.K.C.z y a.&.@ : ; ; a + , 5 8 u 2 J U.8X1X",
",X>X{.s w s.wX<X8Xr.a Y.OXd X a.7.* e r r ^ / ~ f d t o N _.wX8X",
"4X0XU.d X s.wXi.K.w./ |.wXd   t.t.x A n Z #.1X0Xv.v q g M E.wX0X",
"4X>X/.f e x.<.U L 8 K L.{.C % l.7.5 w % + z f.*X7X,.8 2 l #XwX0X",
"wX:X#Xy g X.R P.) , T } $.B y { w.X ( _ T 8 W c.wX8X6.9 j #XoX0X",
"6X0X{.i % 0.-XB.= F `.q.W z V 3.8.Q .X,XwXqX.XqX2XwX!.[ 4 !.$X0X",
"1X:XOXV 3 5.-X1.6 V (.0X<XJ w N.| [ ;XOXwXwX1X>XqX0X&X2.3 L.1X0X",
"7X0XoX= p ;.]. .o.D 4.wX|.k g q.*.M ' E ` P  .n.>XwX9.< l 1XoXwX",
"8XwX+Xh H I ! 5 [.x.b 1X=XB u 8.7.O = % = j +.=X-Xg.4 5 J OXwXqX",
"wXwXQ.d Y 6.Y.].rX*Xb i.-XS O 9.y., B a D O.~.>XM.v q ^ j U.wX5X",
",XwX%Xw > d.0X%XwX-X=.X.`.6 2 $.%.n M u s ` ..>.D : t r n _.wXwX",
"qXwXE.m 2 u.6XW.'.n.' #.4.6 4 @.O.= $ X X r e O O 6 s . N }.=X8X",
"8X9XXXk.y.V.C.y.Z.d.>.L.t.j.%.}.^.y.0.x.r.z.k.j.D.f.j.d.u.eXwX8X",
";XqXwX=X*X3XwX&X0X#X8XwXqX-X$X>X0X X4XqX0X0XqX0XqX0X@X8X3X>XwX4X",
"wXwXwXwXwXwXwXwXwXwXwXwXwXwXwXwXwXwXwXwXwXwXwXwXwXwXwXwXwXwXwXwX",
"wXwXwXwXwXwXwXwXwXwXwXwXwXwXwXwXwXwXwXwXwXwXwXwXwXwXwXwXwXwXwXwX",
"wXwXwXwXwXwXwXwXwXwXwXwXwXwXwXwXwXwXwXwXwXwXwXwXwXwXwXwXwXwXwXwX",
"wXwXwXwXwXwXwXwXwXwXwXwXwXwXwXwXwXwXwXwXwXwXwXwXwXwXwXwXwXwXwXwX",
"wXwXwXwXwXwXwXwXwXwXwXwXwXwXwXwXwXwXwXwXwXwXwXwXwXwXwXwXwXwXwXwX",
"wXwXwXwXwXwXwXwXwXwXwXwXwXwXwXwXwXwXwXwXwXwXwXwXwXwXwXwXwXwXwXwX",
"wXwXwXwXwXwXwXwXwXwXwXwXwXwXwXwXwXwXwXwXwXwXwXwXwXwXwXwXwXwXwXwX",
"wXwXwXwXwXwXwXwXwXwXwXwXwXwXwXwXwXwXwXwXwXwXwXwXwXwXwXwXwXwXwXwX"
};
