/* XPM */
static char *_42f3f0d1181497e8ae60efa244a0fc3hX0ivS7rpJznZx6d[] = {
/* columns rows colors chars-per-pixel */
"32 32 13 1 ",
"  c gray80",
". c gray79",
"X c #C3C3C3",
"o c gray76",
"O c #211F2F",
"+ c #73A02B",
"@ c #E24C4E",
"# c #9A1F4E",
"$ c #CA334B",
"% c #2D851E",
"& c #105F2C",
"* c white",
"= c #A5CA4C",
/* pixels */
"       ..              ..       ",
"      .XX.            .XX.      ",
"     .XooX.          .XooX.     ",
"    .XooooX.        .XooooX.    ",
"   .XooooooX.      .XooooooX.   ",
"  .XooooooooX.    .XooooooooX.  ",
" .XooooooooooX.  .XooooooooooX. ",
".XooooooooooooX..XooooooooooooX.",
".XooooooOOOOooXOOOOOOoooOOOoooX.",
" .XooooO++++OXO++++++OoO@@@OoX. ",
"  .XoooOOOOOOOOOOOOOOOO#$$$OX.  ",
"   .XoO@@@$@$$$$@$@@@$#O#OOX.   ",
"    .XOO##$#$$$$#$###OOOO#$O    ",
"     .O$$$$$$$$$$$$$$$##O$@O    ",
"      OOOOOOOOOOOOOOOOOOO$@O    ",
"     O%&****&%&****&%%%%OO@O    ",
"     O+%&&&&%+%&&&&%++++%OO     ",
"     O+++++++++++++++++++O      ",
"     O++&&&&&&&&&&&&+++++O.     ",
"    .O+%++++++++++++%++++OX.    ",
"   .XO+++++%%%%%+++++++++OoX.   ",
"  .XooO%+++++++++++++++%OoooX.  ",
" .XooooO%%+++++++++++%%OoooooX. ",
".XoooooOOO+++++++++++OOOooooooX.",
".XooooO%O++=======++++++OoooooX.",
" .XooO%%O+=========+O%++%OoooX. ",
"  .XoO%%O+=========++O%%%OooX.  ",
"   .XoOOO++=======+++%OOOooX.   ",
"    .XooO++OOOOOOOO++%OoooX.    ",
"     .XoO%+%O     O%+%OooX.     ",
"      .XXO%%O      O%%OXX.      ",
"       .. OO        OO ..       "
};
