/* XPM */
static char *_894b0e66b4f4c869c38ff0f82f163c6lzxQ96OAJKYsFjMW[] = {
/* columns rows colors chars-per-pixel */
"32 32 7 1 ",
"  c black",
". c #211F30",
"X c #B22E20",
"o c #D2612F",
"O c #E68D41",
"+ c #F2BC7E",
"@ c #FBDFB1",
/* pixels */
"................................",
".O++++++++++++++++++++++++++++@.",
".oOOOOOOOOOOOOOOOOOOOOOOOOOOOO+.",
".oOOOOOOOOOOOOOOOOOOOOOOOOOOOO+.",
".oOO                        OO+.",
".oOO                        OO+.",
".oOO                        OO+.",
".oOO                        OO+.",
".oOO                        OO+.",
".oOO                        OO+.",
".oOO                        OO+.",
".oOO                        OO+.",
".oOO                        OO+.",
".oOO                        OO+.",
".oOO                        OO+.",
".oOO                        OO+.",
".oOO                        OO+.",
".oOO                        OO+.",
".oOO                        OO+.",
".oOO                        OO+.",
".oOO                        OO+.",
".oOO                        OO+.",
".oOO                        OO+.",
".oOO                        OO+.",
".oOO                        OO+.",
".oOO                        OO+.",
".oOO                        OO+.",
".oOOOOOOOOOOOOOOOOOOOOOOOOOOOO+.",
".oOOOOOOOOOOOOOOOOOOOOOOOOOOOO+.",
".oOOOOOOOOOOOOOOOOOOOOOOOOOOOO+.",
".XooooooooooooooooooooooooooooO.",
"................................"
};
