/* XPM */
static char *f70589623a1c42f6c91f9db205a60eeeu1Ty2ugrtyr2LRzd[] = {
/* columns rows colors chars-per-pixel */
"82 86 227 2 ",
"   c #120605",
".  c #150906",
"X  c #1A0C05",
"o  c #150A09",
"O  c #1A0D0C",
"+  c #180601",
"@  c #1E120E",
"#  c #1D1104",
"$  c #1C0E11",
"%  c #160F11",
"&  c #161214",
"*  c #1C1413",
"=  c #171619",
"-  c #17181B",
";  c #18191C",
":  c #191719",
">  c #0F0200",
",  c #22130C",
"<  c #2A160A",
"1  c #251A0E",
"2  c #2C1B0C",
"3  c #281504",
"4  c #351B0A",
"5  c #261913",
"6  c #2B1B14",
"7  c #2C1C18",
"8  c #271613",
"9  c #341E14",
"0  c #200E01",
"q  c #342315",
"w  c #34241A",
"e  c #3C291C",
"r  c #39281B",
"t  c #38220B",
"y  c #1F1F21",
"u  c #1F3328",
"i  c #1D2A24",
"p  c #232325",
"a  c #2B2A2B",
"s  c #3D2D23",
"d  c #302E2E",
"f  c #3A3226",
"g  c #312F30",
"h  c #343332",
"j  c #3C3936",
"k  c #3C3A39",
"l  c #462A19",
"z  c #49331D",
"x  c #483628",
"c  c #593C29",
"v  c #473C36",
"b  c #472D20",
"n  c #683723",
"m  c #773E2A",
"M  c #5B2813",
"N  c #295639",
"B  c #2C5E3E",
"V  c #44413B",
"C  c #58473A",
"Z  c #554832",
"A  c #68402A",
"S  c #76442E",
"D  c #694B3A",
"F  c #784D38",
"G  c #79553B",
"H  c #79502F",
"J  c #33784A",
"K  c #4A4643",
"L  c #494642",
"P  c #544C46",
"I  c #58534C",
"U  c #5E5952",
"Y  c #6A5948",
"T  c #795943",
"R  c #645C54",
"E  c #705E51",
"W  c #796349",
"Q  c #6B645D",
"!  c #686258",
"~  c #7A6958",
"^  c #7F705D",
"/  c #756B62",
"(  c #7A7367",
")  c #6F6B64",
"_  c #874D34",
"`  c #83533B",
"'  c #87573B",
"]  c #93543B",
"[  c #8A5D42",
"{  c #835A46",
"}  c #975C45",
"|  c #89644A",
" . c #95644B",
".. c #9D634A",
"X. c #96674A",
"o. c #896C55",
"O. c #946C51",
"+. c #9A6953",
"@. c #8A755C",
"#. c #9B7558",
"$. c #A2664C",
"%. c #A46B52",
"&. c #A86D56",
"*. c #A47256",
"=. c #AD755B",
"-. c #AC7B5D",
";. c #A6745A",
":. c #B4775E",
">. c #8B7C6C",
",. c #857567",
"<. c #987A65",
"1. c #8B7D73",
"2. c #877E74",
"3. c #8C766B",
"4. c #A97B64",
"5. c #B47D63",
"6. c #B87D66",
"7. c #36814F",
"8. c #3D9B5B",
"9. c #40A460",
"0. c #B0805E",
"q. c #98856D",
"w. c #8B8274",
"e. c #93857B",
"r. c #988A79",
"t. c #AD836B",
"y. c #AA8367",
"u. c #BC8166",
"i. c #B4846A",
"p. c #BB836A",
"a. c #B38A6D",
"s. c #B78768",
"d. c #A98876",
"f. c #B48D74",
"g. c #B88D75",
"h. c #AA9279",
"j. c #BC9275",
"k. c #B9967A",
"l. c #C2856B",
"z. c #C3896E",
"x. c #C38C72",
"c. c #C88E74",
"v. c #CB9276",
"b. c #C4947A",
"n. c #CB957A",
"m. c #CC9C7D",
"M. c #C59478",
"N. c #D1987C",
"B. c #CDA07F",
"V. c #9C8C83",
"C. c #958E83",
"Z. c #9D9384",
"A. c #9F9189",
"S. c #A18E82",
"D. c #A39484",
"F. c #A59A8C",
"G. c #AA9B8C",
"H. c #A69688",
"J. c #B59984",
"K. c #AD9D92",
"L. c #A69B91",
"P. c #B09F97",
"I. c #ADA28B",
"U. c #B3A38D",
"Y. c #ADA394",
"T. c #ABA095",
"R. c #B4A593",
"E. c #B7A893",
"W. c #B9AA96",
"Q. c #B5A599",
"!. c #B6AC9B",
"~. c #BBAD99",
"^. c #BFB09B",
"/. c #B8B197",
"(. c #BBADA3",
"). c #BCB2A4",
"_. c #C99D83",
"`. c #D29D82",
"'. c #D4A384",
"]. c #DAA78A",
"[. c #C1B39D",
"{. c #C9B89F",
"}. c #CCA993",
"|. c #C4B6A2",
" X c #C6B9A3",
".X c #CBBCA5",
"XX c #C5BBA9",
"oX c #CBBCAA",
"OX c #C9B6A4",
"+X c #D5BCA9",
"@X c #CEBEB1",
"#X c #CEC1AB",
"$X c #CFC1A7",
"%X c #D2C4AB",
"&X c #D6C9AE",
"*X c #DEC5AB",
"=X c #CEC6B3",
"-X c #D3C5B2",
";X c #D3C9B5",
":X c #DBCDB4",
">X c #D4CCBA",
",X c #DBCBBB",
"<X c #D9C6B6",
"1X c #DED1B6",
"2X c #DCD2BD",
"3X c #E2D2B6",
"4X c #E0D2B9",
"5X c #E3D5BB",
"6X c #E3D5B9",
"7X c #E3D5BD",
"8X c #E4D6BE",
"9X c #E5D7BF",
"0X c #E4D6BC",
"qX c #E2D5BD",
"wX c #EAD4BB",
"eX c #E1C9AE",
"rX c #DED4C2",
"tX c #DFD8C2",
"yX c #DACDC0",
"uX c #E5D7C1",
"iX c #E5D6C3",
"pX c #E2D6C2",
"aX c #E4D8C1",
"sX c #E7D8C1",
"dX c #E3D8C4",
"fX c #EBDAC3",
"gX c #ECE0C7",
/* pixels */
"@ @ @ @ @ @ @ @ @ @ @ @ @ @ @ , @ @ @ @ @ * : ; ; ; ; ; ; ; ; ; ; ; ; ; ; ; ; ; ; ; ; ; ; ; ; ; ; ; ; ; ; ; ; ; ; ; * , @ @ @ @ @ @ @ @ @ , * , O @ @ @ O , * @ @ , ",
"@ @ @ @ @ @ @ @ @ @ @ @ @ @ $ , @ 1 @ * ; ; ; ; ; ; ; ; ; ; ; ; ; ; ; ; ; ; ; ; ; ; ; ; ; ; ; ; ; ; ; ; ; ; ; ; ; ; ; : * @ @ @ @ @ @ @ O * @ @ , * O , , * O , O * ",
"@ @ @ @ @ @ @ @ @ @ @ @ * , , $ @ * ; ; ; ; ; ; ; ; ; ; ; ; ; ; ; ; ; ; ; ; ; ; ; ; ; ; ; ; ; ; ; ; ; ; ; ; ; ; ; ; ; ; ; ; * @ @ @ @ @ , @ @ @ @ @ , * @ @ @ @ , @ ",
"@ @ @ @ @ @ @ * @ @ @ @ O O , * * ; ; ; ; ; ; ; ; ; ; ; ; ; ; i V ! Q w.Z.I.^.&X&X|.R.Z.w.( ! K p ; ; ; ; ; ; ; ; ; ; ; ; ; ; : @ @ @ @ @ @ @ @ @ @ @ @ @ @ @ @ @ @ ",
"@ @ @ @ @ @ @ @ @ @ @ @ , , * ; ; ; ; ; ; ; ; ; ; ; - - d ! Z.$X%X%X&X&X1X1X1X1X1X4X5X5X5X5X0X0X2XY.) h ; ; ; ; ; ; ; ; ; ; ; ; ; * @ * @ @ @ @ @ @ @ @ @ @ , $ @ @ ",
"@ @ @ @ @ @ @ @ @ @ @ @ * : ; ; ; ; ; ; ; ; ; ; ; V ( I. X$X$X$X%X%X&X:X1X1X1X1X4X6X4X5X0X0X0X0X9X9XqX9X Xw.K ; ; ; ; ; ; ; ; ; ; ; : , @ @ @ @ @ @ * , @ @ @ @ @ @ ",
"@ @ @ @ @ @ @ @ , O , * ; ; ; ; ; ; ; ; ; ; ; I R.{.{.[..X$X$X$X%X&X&X1X1X1X1X1X4X4X6X5X5X5X0X0X9XqX9XqXqXqX9XXXR ; ; ; ; ; ; ; ; ; ; : * @ @ @ @ @ @ O @ @ @ @ @ @ ",
"* , @ @ @ @ @ @ * , * ; ; ; ; ; ; ; ; ; ; L D.{.{. X X$X$X$X$X%X%X&X&X1X1X1X2X1X4X4X5X0X0X0X0X0X9X9XqX9X9X9XqX9X9X^.I ; ; ; ; ; ; ; ; ; : * @ @ @ @ @ , @ @ @ @ * @ ",
"@ @ @ @ @ @ @ @ @ * ; ; ; ; ; ; ; ; ; v V.[.[.[.{. X.X.X.X.X%X%X%X&X:X1X1X1XqX4X4X4XqX0X0X0X0X0X8X8X8X8X8X8X8X8X9X2X5XE.L ; ; ; ; ; ; ; ; ; : @ O * @ @ @ @ @ @ , * ",
"@ @ @ @ @ @ @ @ * - ; ; ; ; ; ; : g 1.[.[.[.[.[. X{..X.X$X#XoX%X&X&X:X1X1X1X1X4X4XqX5X5X0X0X0X0X8X8X8X8X8X8X8X8XqX0XqX8X2XF.k ; ; ; ; ; ; ; y * , @ @ @ @ @ @ @ O , ",
"@ @ @ @ @ , @ : ; ; ; ; ; ; ; ; P W.[.[.[.[.[.[.{. X.X%X.X%X%X%X%X&X:X1X1X1X1X6X4X5X5X0X0X0X9X6X8X8X8X8X8X8X8X8XqX5XqXqXqXqX1X! ; ; ; ; ; ; ; ; * * @ @ @ @ @ @ , @ ",
"@ @ @ @ @ @ * ; ; ; ; ; ; ; ; Q [.[.W.W.[.[.[.|.[. X.X.X.X.X$X%X&X&X:X:X1X1X4X1XqXqX8X8X8X8X9X9X8X8X8X8X8X8X8X8X9X9X9XqX8XaXqXpX( ; ; ; ; ; ; ; - * @ @ @ , @ @ O @ ",
"@ @ @ @ @ * ; ; ; ; ; ; ; y 2.~.[.[.W.[.[.[.[.|.|. X.X.X.X$X#X%X%X&X:X:X1X1X6X6X5X5X6X6X9X9X9X9X8X8X8X8X8X8X8X8X8X8X8X8X8X8X8X8X8XH.y ; ; ; ; ; ; ; * , , @ @ * , * ",
"@ @ @ @ * ; ; ; ; ; ; ; p r.~.[.~.[.[.[.[.[.[.[.[. X.X.X.X.X$X%X%X&X:X1X1X1X1X3X6X5X6X0X6X6X6X9X8X0X8X8X8X8X9X9X8X8X8X8X8X8X8X8X8X8XY.a ; ; ; ; ; ; - * @ @ @ @ @ @ ",
"@ @ @ * ; ; ; ; ; ; ; a H.W.~.~.[.~.[.[.[.[.[.[.[.|..X.X.X$X#X%X&X&X:X1X1X1X1X3X6X6X0X5X9X6X9X6X8X8X8X8X8X8X9X9X8X8X8X8X8X8X8X8X8X8XqXoXh - ; ; ; ; ; ; @ @ @ @ @ @ ",
"@ @ , ; ; ; ; ; ; ; p h./.W.~.~.W.W.W.W.[.[.[.[.|.|..X.X.XoXoX+X%X%X%X%X%X{.%X$X%X%X:X6X5X9XfX9X9X9XuX8X9X9X9XaXaXaXaXaXaXaXaXaXuXuXuXuXXXp ; ; ; ; ; ; ; @ @ @ @ @ ",
"@ @ : ; ; ; ; ; ; ; w.W./.E./.W.}.W./.W.^.^.^.[.[.|.|..X.XoXoX@X-X+X.XOXZ.^ @.>.,.S.~.OX+X<X,XpXfXuXqX,X9XaX9X9XaXaXaXaXaXaXaXaXuXuXaXuXuXK.; ; ; ; ; ; ; : @ @ @ @ ",
"@ * ; ; ; ; ; ; = ~ E.E.E.E.E.W.W./.}./.~.^.~.^.[.|.|..XOXOX@X@X#XOX1.v s 9 w 8 s s x P R 1.(.yXiXuXuXuX9X9X9X9XaXaXaXaXaXaXaXaXaXuXuXuXpXuX2.; ; ; ; ; ; ; * @ @ * ",
"* ; ; ; ; ; ; ; I E.W.W.W.E.E.E.W./.W.W.[.W.[.~.~.|.|.|.XXOX@X@XQ.E 7 , 1 , 7 8 8 7 7 8 w s C / e.R.<X,XpX9X9X9XaX9XaXaXaXaXaXaXuXuXaXuX8XuXuXU ; ; ; ; ; ; ; @ @ @ ",
"* ; ; ; ; ; ; k U.E.E.E.E.E.E.W.W.W.W./.W.[./.[.OX[.[.OXXXXX(.L.P 7 8 5 8 8 5 5 7 8 7 7 7 7 7 7 q x ^ .XpXqX9X9X8XpXaXaXdXtXaXdXaXaXaXaXpXuXpX,XL ; ; ; ; ; ; : @ @ ",
"; ; ; ; ; ; a G.E.U.E.E.E.E.E.E.W.W.W./.[.}./.~.[.W.[.OXXX(.e.v 5 X , 5 5 5 5 5 8 6 5 5 6 6 7 7 6 s >.OXpXpXqX9XqXpXrXdXdXdXdXtXaXaXaXaXpXpXuXpX=Xd ; ; ; ; ; ; * @ ",
"; ; ; ; ; ; ,.E.E.E.E.E.E.E.E.W.W.W.W.W.W.W.~.W.W.[.[.[.H.Y e 7 , , 1 6 5 1 5 1 6 5 6 6 6 1 6 q , q ^ oXpXqXqXqXpXpXdXdXaXtXpXdXaXaXaXaXiXiXpXpXtXF.; ; ; ; ; ; : , ",
"; ; ; ; ; j E.E.E.E.U.}.E.E.E.E.W.E.W.W.W.W././.[.{.~.G.x w 6 2 < < 2 < < < < 1 < < 2 2 2 2 2 6 w b s >.2XiXqXpX8XpXdXrXtXdXdXaXdXpXuXuXpXpXpXiXtXrXk ; ; ; ; ; : * ",
"; ; ; ; ; w.E.E.E./.U.E.E.E.E.E.E.W./.W.W.W./.}.[.[.[.! w s 9 < 4 l c A F @.o.G A Z z l z l z 4 q r w P OXfXqXfXaXaXdXtXdXdXdXtXaXdXaXpXpXiXdXuXpXpXK.; ; ; ; ; ; : ",
"; ; ; ; k E.E.U.E.E.E.E.E.E.E.E.W.W.W.W.W.E./.W.[.[.U.D e 9 7 9 M n { O.4.f.k._.g.d.y.q.O.| W D 2 9 2 x D.qXiXaXdXdXtXdXdXdXdXdXdXdXaXdXpXpXpXpXpXtXpXK ; ; ; ; ; ; ",
"; ; ; ; q.E.E.E.E.E.E.E.E.E.E.E.E.E.W.W.W./.W.W.[./.J.! s 2 < b F { -.j.M.j._.].m.n.b.b.j.a.6.o.x e s f r.rXfX2XtXaXdXdXdXtXdXdXtXaXtXdXpXpXuXpXpXpXpXY.; ; ; ; ; ; ",
"; ; ; V E.E.E.E.E.E.E.E.E.E.E.E.}.E.W.W.W.W.W.W./.^.I.>.b , , x | #.y.a.B.'.'._.'.'.'.].b.x.n.i.D 9 w r F.qXdXdXrXdXrXtXdXdXdXdXtXdXdXdXpXdXpXdXrXqXpXrXP ; ; ; ; ; ",
"; ; ; r.U.E.E.E.E.E.E.E.E.W.E.W.E.W.E.E.W.W.W.W./.^.R.>.x < 4 D +.-.s.m.B.B.'.].].'.'.].`.`.b.t.o.s 1 r R.rXdXrXtXtXtXtXrXdXdXdXdXdXdXdXaXiXuXiXpXpXpXpX).; ; ; ; ; ",
"; ; d E.E.E.E.E.E.E.E.E.E.E.E.E.E.E.W.E.W.W.W./.!.).E.r.C 9 2 D O.*.0.x.B.B.m.B._.B.'.'.].'.b.a.o.e w b ).rXdXrXrXrXrXrXdXdXdXrXdXpXdXdXiXdXdXiXpXiXpXpXrXh ; ; ; ; ",
"; ; R E.E.E.E.U.U.E.E.E.E.E.E.W./.E.E.W.W.W.W.W./.^.!.G.E q < D ;.-.0.x.M.m.B.N.n.].].]._.b.x.g.<.b w v -XrXdXyXdXdXrXdXrXdXdXdXdXdXdXdXiXiXuXiXiXpXpXqXrX( ; ; ; ; ",
"; ; r.E.E.E.E.E.E.E.E.E.}.E.E.E.E.E.E.E.W.W.W.W./.^.!.G.@.r 2 Y | X. .#.i.x.n.m.].`.u. .' ' } 4.<.c 4 C >XrXdXrXrXrXrXrXdXdXdXdXdXdXdXdXdXuXiXdXiXpXpXpXpX!.; ; ; ; ",
"; a E.E.E.E.E.E.E.E.E.E.E.E.E.E.E.E.E.W.W.W.~.~.!.!.~.~.,.c 4 D n n S S S *.6.n.].n.i.5.p.x.4.} 4.| t W rXdXdXgXdXdXrXrXdXdXdXdXdXdXdXdXdXiXuXuXpXpXpXpXpXrXa ; ; ; ",
"- P E.U.E.E.E.E.E.E.E.E.E.E.E.E.E.W.W.W.W.!.W.~.!.!.~.~.q.C 4 D F  .6.4.4.6.6.g.m.v.p.s.%.+.g.x.4.{ t q.3X6XwXwXgX9XtXtXdXdXdXtXdXdXdXdXdXdXiXiXiXrXiXrXpX2XQ ; ; ; ",
"- q.E.E.E.E.E.E.E.E.E.E.W.W.W.W.E.E.W.W.W.W.~.~.!.~.~.~.d.Y 4 G T T m l &.4.&.g.c.z.c.x._ $...b.i.O.Z k.eXeXwXwXaXtXtXtXdXdXdXdXdXdXdXdXdXdXiXdXiXiXiXiXpXqXL.; ; ; ",
"i U.E.E.E.E.U.E.E.E.E.W.W.W.E./.E.W.W.W.~.E.Q.W.~.~.~.W.D.W 4 T { T  .+.4.6.&.4.l.l.v.N.n.N.v.`.n.#.` a.*XeX3X9XaXtXdXtXdXdXdXdXdXdXdXdXdXdXdXdXiXiXiXrXpXrX,Xp ; ; ",
"j E.E.U.E.E./.U.U.}.W.W.W.W./.U.W.E.Q.~.E.~.~.W.!.~.!.W.J.W A | } ;.6.6.c.&.} &.:.:.v.B.'.`.N.N.c.u.s.k.*X3X3X1X2XtXtXtXdXdXdXdXdXdXdXdXdXfXdXdXiXrXiXiXpXrXrXV ; ; ",
"V E.U.E.E.E.E.}./.E.E.E.W.W.W./.W.W.~.W.E.~.Q.~.W.~.W.W.q.| G ' | ;.6.6.6.&.%.x.l.:.l.v.N.N.n.v.l.6.p._.+XwX2X2XrXdXdXrXrXdXdXdXdXdXdXdXiXiXiXdXpXiX2XiXiX2XpXI ; ; ",
"U E.E.E.E.E.E.E.E.E.W.W.W.W.}./.W.W.~.W.~.W.W.W.!.W.E.}.q.W W G { +.4.6.6.+.} l.u.:.u.c.N.v.v.c.:.u.g._.*XwXqX2XrXrXrXrXdXrXdXdXgXdXdXdXiXiXiXdXiXpXiXpX2XpXpXQ ; ; ",
"! E.U.E.E.E.E.E.W.W.W.W.[.E./.W.~.W.R.~.W.~.W.W.~.~./.W.h.W W H { ..&.6.l.} _ $.&.$.l.N.N.n.c.z.-.i.b._.*XwXpX,XrXrXrXrXrXdXdXdXdXdXdXdXiXiXdXdXpXpXiXpXiXpX2X2.; ; ",
"( U.E.U.E.E.E.E.E.U.E./.W.W.W.W.W.W.Q.~.W.W.!.W.~.W.W.W./.W W H {  .&.6.l.&.$.6.v.l.l.v.v.v.l.l.-.j.J.+X*X<X<X,XrXrXrXrXdXdXdXdXdXdXdXdXdXdXdXfXiXpXpXiXpX2XiXC.; ; ",
"w.U.E.U.E.U.E.E.E.E.E.E.~.W.W.W.W.~.Q.}.Q.W.W.W.Q.!.W.W.E.@.W G F ' +.-.:.&.&.u.l.l.l.v.v.c.u.6.4._.+X+X<XyX,X,XdXrXrXrXrXdXdXdXdXdXdXdXdXdXdXdXiXpXpXpXpX2X2XT.; ; ",
"r.E.U.E.E.E.E.E.E.E.E.E.W.W.W.W.W.Q.~.W.W.!.E.~.}.~.W.W./.r.W W G ' ..=.:.$.] ] $.&.:.u.c.l.u.:.g.+X+X+X<X<XyXyXrXrXrXrXdXdXdXdXdXdXdXdXfXdXdXfXiXpXuXuXpXpX2X(.; ; ",
"I.E.U.U.E.U.E.E.E.E.E.R.W.W.W.W.W.W.~.W.~.W.~.Q.~.W./.E./.I.q.W T ` [ %.&._ _ _ ] ] ] :.z.l.:.4.}.%X+X+X<XyX>X>XrXrXrXrXrXdXdXdXdXdXdXdXdXdXdXdXiXpXuXpXpX2XpX-X; ; ",
"I.U.U.E.E.E.E.E.E.E.E.}.W.W.W.W.W.~.Q.W.E.~.W.W.~.~.~.W./.U.U.q.T F ` } %.] ] $.$.$.:.:.l.:.:.5.{.oX@X@X<X<X>X>XrXrXrXrXdXrXdXrXdXtXdXaXdXdXdXfXiXpXpXpXpXpXpX>X; ; ",
"r.E.U.U.E.E.E.E.E.E.E.E.W.W.W.W.~.W.Q.~.~.W.~.W.~.W.~.~.W./.E.h.T G _ } } ..$.=.:.:.l.u.u.=.=.4.OX.XoX-X=X>X=X=XyXrXrXrXrXrXdXdXrXdXpXdXdXdXfXdXiXpXpXpXpX2XpX).; ; ",
"w.I.E.E.U.E.E.E.E.E.E.E.W.W.W.W.W.W.W.~.Q.W.E.~.~.W.~.W.~.~.W.U.o.T F _ ` } $.-.l.:.0.0.:.&.=.a.{.oXoX-X=X>X>X;XrXyXrXrXrXrXrXdXdXrXdXpXfXdXdXdXiXaXdXuXpXpXqXY.; ; ",
"( E.I.E.E.E.E.E.E.E.E.E.W.W.W.W.~.Q.~.R.R.~.Q.W.W.W.W.~.~.[.E.~.d.T S n m _ X.-.:.0.*.*.*.*.-.g..XXX%X-X=X>X=X>XyXrXrXrXrXdXdXrXdXdXdXdXdXdXiXiXpXpXpXuXpX2XtXA.; ; ",
"Q E.E.U.E.U.E.E.R.W.W.E.W.W.W.W.W.W.~.R.~.E.W.W.W.Q.W.W./.~.W./.H.o.T F m n n H ] _ _ [ +.s.j.a..XXXoXoX=X=X>X>XyXyXyXyXrXrXrXrXrXdXpXpXdXfXiXuXpXpXpXpXrX2XrX2.; ; ",
"! I.E.R.R.R.R.E.E.E.Q.W.W.W.W.W.W.~.W.~.R.E.E.E.Q.Q.Q.W.!.E.!.W.h.q.G G [ H H G ' [ q.0.y.a.j.a.U.^..X#X#X=X;X;X;X>X2X2X2XtXrXtXpXpXpXdXdXpXiXiXdXpXpXpXrX,XpX( ; ; ",
"P E.R.R.R.K.E.E.E.R.E.E.E.Q.Q.W.W.Q.E.R.~.R.E.E.E.E.E.E.!.R.R.E.h.W G | ' ' | ;.a.a.0.y.a.j.a.h.Z ,.~.oX#X#X#X;X;X;X;X2X2X2X>XrXrXpXrXpXpXpXpXpXpXpXpXrXrXrXrXR ; ; ",
"v R.I.R.R.R.R.E.E.R.Q.E.W.Q.W.W.~.E.Q.E.W.U.W.E.R.!.E.!.I.R.E.Y.q.Z W O.X.[ | X.0.a.a.0.y.a.k.h.Y 1 x F.).#X#X=X=X;X;X>X>X2XtX>XrXpXrXdXpXpXpXpXpXpXpXpXrXrXyXK ; ; ",
"p I.R.R.R.R.R.R.R.R.E.Q.E.E.Q.E.E.E.W.E.Q.K.G.R.I.E.I.Y.I.Z.,.Z 2 3 G o.O.X.| | q.0.y.y.a.k.k.h.@.r # q w.$XXX=X>X;X;X;X>X>X2XtXrXrXdXrXpXpXpXpXpXpXpXyXrXrXyXy ; ; ",
"; e.R.R.Y.R.R.R.R.R.W.Q.Q.Q.E.Q.Q.E.Q.E.R.P.Q.Q.Y.Y.R.w.C 2   3 # t W o.#.#.O.O.#.y.y.a.f.k.k.h.w.r X < 1 f w.).=X=X=X;X>X>X>XtXrXrXtXdXtXtXrXrXrXpXrXiXrXyXL.y ; ; ",
"; U R.R.K.R.R.E.R.R.Q.R.~.E.Q.R.E.Q.Q.R.R.Q.Q.K.F.>.f X X X . X   e W o.<.#.#.#.0.0.a.k.f.k.k.h.w.1 # X 3 , @ r Q Z.=X=X>X>X>X>XyXrXrXrXtXrXrXrXpXrXrXiXrXrXR y ; ; ",
"; g R.R.R.R.R.K.R.R.R.Q.Q.Q.~.Q.Q.Q.Q.Q.R.P.H.1.v <   . # X   # + 2 o.@.q.4.<.4.t.d.f.h.h.J.I.h.@.O @ 1 @ X 1 # @ 1 v w.+XyX>X>XrXrXrXrXrXrXrXrXrXrXrXrXrXyXa = ; ; ",
"; ; r.Y.R.P.R.R.P.P.R.R.Q.Q.Q.Q.P.P.Q.P.L.1.C @ . . . . o o X X 0 + C @.<.<.<.4.d.f.h.k.J.h.k.r.w @ , X @ O @ @ @ @ @ $ b 8.XX>XyXyXrXrXrXyXrXrXrXrXiXrXiX(.y = ; ; ",
"- - ! P.R.P.U.P.K.R.P.R.P.R.Q.P.P.P.L.V.v +   O o o o o o o o o . X 3 o.>.q.d.d.6.S._.}.S.J.d.C , $ O O @ O @ @ @ # # * # 1 V r.yXyXyXyXyXyXrXrXrXrXrXrXtX) ; ; ; ; ",
"- - j R.P.R.U.U.R.P.R.P.P.P.P.P.P.P.2.7 + $ + $ o o o o % o $ o * 8 X t W 3.r.d.S.J.J.H.J.1.Z 0 O $ $ $ O O O O @ * O O * 1 @ * k k g - - k K ) (.yXrXrXrXh ; ; ; ; ",
"- ; : D.P.R.P.P.K.U.R.R.P.P.P.P.L.,., X o o $ + o o % o o o o o O o   X + l Y ,.<.1.3.3.c 8 + X O $ $ % $ O @ @ & @ & @ . & - ; ; ; ; ; ; ; ; ; y g C.yX).y ; ; ; ; ",
"; ; : v P.P.K.P.P.P.K.K.H.P.P.L.1.7 X   o + o o o o o o o $ % o O o . X . O + + O O , $ 8 $ O O X $ O % O $ % O # % @ % = ; ; ; ; ; ; ; ; ; ; ; y y y k K y ; ; ; ; ",
"; ; ; ; 1.K.K.K.P.K.K.K.L.L.K.A.v + + + + o o o o o o o o o o o o o O o o o % o o o o % O O O O O O $ O O % O & O O & - - - ; ; ; ; ; ; ; - - - = - - y ; ; ; ; ; ; ",
"; ; ; ; j K.K.K.G.G.G.K.H.L.S.Q 1 . o X o o o o o o o o o o O o % o o . o o o o o o o o o o o o O o o O % # O O O O - ; - - ; ; ; - ; ; ; - - y = = - = ; ; ; ; ; ; ",
"; ; ; ; y ( K.G.G.G.K.G.A.L.V.s . O o o o o o o o o o o o o o o o o o O O o o o o       o o o o o O O o % % O O % - ; ; ; ; ; ; - - ; ; ; ; - - - - - - ; ; ; ; ; ; ",
"; ; ; ; : d G.K.K.J.L.L.S.S.Q o + + o .   + o o o o o   o o o . o o o o o o o o o       o o O o o o O o . O O O = - ; ; ; ; ; ; i J J 8.9.J B i - y - - ; ; ; ; ; ; ",
"; ; ; ; ; ; / G.K.H.H.L.V.S.x o + . o o o . o o o o o o       o   o o o o o o o o   o o o o o % o o o % o % o % ; ; ; ; ; ; ; N 9.9.9.9.9.9.9.8.N ; ; ; ; ; ; ; ; ; ",
"; ; ; ; ; ; p e.H.H.H.H.e.,.O + . . + o . . o o o o o   o   o   o o o o o o o o o o       o o o o o % o o % o = ; ; ; ; ; ; J 9.9.9.9.9.9.9.9.9.9.J ; ; ; ; ; ; ; ; ",
"; ; ; ; ; ; - h S.S.S.S.e.K o + . . o o . o o o o o o o o     o o   o o o o o o o o o     o o o o o o o $ o % y ; ; ; ; ; N 9.9.9.9.9.9.9.9.9.9.9.9.N ; ; ; ; ; ; ; ",
"; ; ; ; ; ; - - K S.S.V.1.8 O + . . . + o o . o   o o   o   o   o   o o o o o       o o o   o   o o o o o o % = ; ; ; ; u 9.9.9.9.9.9.9.9.9.9.9.9.9.8.u ; ; ; ; ; ; ",
"; ; ; ; ; ; ; ; = I V.V.~ O   O o . . o o o o o     o o o o o o   o     o o o   o       %   %   o o o o o o = ; ; ; ; ; B 9.9.9.9.9.9.9.9.9.9.9.9.9.9.B ; ; ; ; ; ; ",
"; ; ; ; ; ; ; ; = y / e.C +   + o   . o o o o o   o   o   o     o   o     o o o             o     o o o o o = ; ; ; ; ; 7.9.9.9.9.9.9.9.9.9.9.9.9.9.9.7.; ; ; ; ; ; ",
"; ; ; ; ; ; ; ; y = y ,.7 , X o o o o . o o . o   %   % o     o   o o o     . o                 o   o o o o ; ; ; ; ; ; 8.9.9.9.9.9.9.9.9.9.9.9.9.9.9.8.; ; ; ; ; ; ",
"; ; ; ; ; ; ; ; = = y p , O o o o o o o o o o o o   o o o o o o o o o o             %   %   %   o o o o o o ; ; ; ; ; ; 8.9.9.9.9.9.9.9.9.9.9.9.9.9.9.8.; ; ; ; ; ; ",
"; ; ; ; ; ; ; ; ; ; ; ; - O o o o o o   o o o o o o o o o o o o o o o o   o   .   o   o o o o o o o o o o o ; ; ; ; ; ; 7.9.9.9.9.9.9.9.9.9.9.9.9.9.9.7.; ; ; ; ; ; ",
"; ; ; ; ; ; ; ; ; ; ; ; ; - % o o o o o o o o o o o o o o o o o o o o o o o % o o   o     o     o o o o o o = ; ; ; ; ; B 9.9.9.9.9.9.9.9.9.9.9.9.9.9.B ; ; ; ; ; ; ",
"; ; ; ; ; ; ; ; ; ; ; ; ; ; - = o o o o o o o o o o o o o o o o . . o o % o O O o   o o o   . o o o o o o o & ; ; ; ; ; u 8.9.9.9.9.9.9.9.9.9.9.9.9.8.i ; ; ; ; ; ; ",
"; ; ; ; ; ; ; ; ; ; ; ; ; - - ; = o o o o o o o   % o o o o o o % o o o O o o o o % O o o o . . o   o   o o o ; ; ; ; ; ; N 9.9.9.9.9.9.9.9.9.9.9.9.N ; ; ; ; ; ; ; ",
"; ; ; ; ; ; ; ; ; ; ; ; ; ; ; ; - - &   o o o o o o   o o o o   . o o O o O o o % o O O O % . % o o o o o o . = ; ; ; ; ; ; J 9.9.9.9.9.9.9.9.9.9.J ; ; ; ; ; ; ; ; ",
"; ; ; ; ; ; ; ; ; ; ; ; ; ; ; ; - - - - o   o o o o o o o o o   O % o o o o o o o o O o . o . O o O o O o O O & ; ; ; ; ; ; ; N 8.9.9.9.9.9.9.8.N ; ; ; ; ; ; ; ; ; ",
"; ; ; ; ; ; ; ; ; ; ; ; ; ; ; ; - - - - - = o o o o o o o % o o o o o o o % o O o O o O O % % # O O o & o o o o = ; ; ; ; ; ; ; u B 7.8.8.7.B i ; ; ; ; ; ; ; ; ; ; ",
"; ; ; ; ; ; ; ; ; ; ; ; ; ; ; ; - - y - - - y & o o o o o   o o o o o o o o o o o o o o o o o % O o O o O o O % & = ; ; ; ; ; ; ; ; ; ; ; ; ; ; ; ; ; ; ; ; ; ; ; ; ",
"; ; ; ; ; ; ; ; - y - - y - - - - - - - ; ; ; ; - - & %   o o   o o o o o o o o o o o o o o O o o o o o % = - ; ; ; ; ; ; ; ; ; ; ; ; ; ; ; ; ; ; ; ; ; ; ; ; ; ; ; ",
"; ; ; ; ; ; ; ; - - - - - - - - - y - - ; ; ; ; - - ; ; - & % o o o o o o o o o o o o % o o o O o % = - - - - ; ; ; ; ; ; ; ; ; ; ; ; ; ; ; ; ; ; ; ; ; ; ; ; ; ; ; ",
"; ; ; ; ; ; ; ; - - - - - - y - - - - - ; ; ; ; - - - ; ; ; - - = & & & % % o o o % % % & & = - - ; - - - - ; ; ; ; ; ; ; ; ; ; ; ; ; ; ; ; ; ; ; ; ; ; ; ; ; ; ; ; ",
"; ; ; ; ; ; ; ; ; ; y - - - - - - - - y ; ; ; ; y - - - ; - - - y - - ; - - - ; - - - - ; ; - ; ; ; - y - - ; ; ; ; ; ; ; ; ; ; ; ; ; ; ; ; ; ; ; ; ; ; ; ; ; ; ; ; ",
"; ; ; ; ; ; ; ; ; ; ; ; - y - - - y - - - y ; ; - y ; ; ; ; ; ; ; ; ; ; ; ; ; ; - - ; ; ; ; ; ; ; ; ; ; ; ; ; ; ; ; ; ; ; ; ; ; ; ; ; ; ; ; ; ; ; ; ; ; ; ; ; ; ; ; ",
"; ; ; ; ; ; ; ; ; ; ; ; - - - - - - - - - - - - - ; ; ; ; ; ; ; ; ; ; ; ; ; ; ; ; ; ; ; ; ; ; ; ; ; ; ; ; ; ; ; ; ; ; ; ; ; ; ; ; ; ; ; ; ; ; ; ; ; ; ; ; ; ; ; ; ; "
};
