/* XPM */
static char *d42e80b440ca45f5e79b10fc18ffe80b6tG6egqGgwNnufds[] = {
/* columns rows colors chars-per-pixel */
"32 32 13 1 ",
"  c gray80",
". c gray79",
"X c #211F2F",
"o c #C3C3C3",
"O c #2D851E",
"+ c gray76",
"@ c #73A02B",
"# c #A5CA4C",
"$ c #105F2C",
"% c #E24C4E",
"& c white",
"* c #CA334B",
"= c #9A1F4E",
/* pixels */
"       .. XX        XX ..       ",
"      .ooXOOX      XOOXoo.      ",
"     .o++XO@OX     XO@OX+o.     ",
"    .o+++XO@@XXXXXXXX@@X++o.    ",
"   .o++XXXO@@@#######@@XXX+o.   ",
"  .o++XOOOX@@#########@XOOX+o.  ",
" .o+++XO@@OX@#########@XOOX++o. ",
".o+++++X@@@@@@#######@@XOX++++o.",
".o++++++XXX@@@@@@@@@@@XXX+++++o.",
" .o+++++XOO@@@@@@@@@@@OOX++++o. ",
"  .o+++XO@@@@@@@@@@@@@@@OX++o.  ",
"   .o+X@@@@@@@@@OOOOO@@@@@Xo.   ",
"    .oX@@@@O@@@@@@@@@@@@O@X.    ",
"     .X@@@@@$$$$$$$$$$$$@@X     ",
"      X@@@@@@@@@@@@@@@@@@@X     ",
"     XXO@@@@O$$$$O@O$$$$O@X     ",
"    X%XXOOOO$&&&&$O$&&&&$OX     ",
"    X%*XXXXXXXXXXXXXXXXXXX      ",
"    X%*X==***************X.     ",
"    X*=XXXX===*=****=*==XXo.    ",
"   .oXX=X=*%%%*%****%*%%%X+o.   ",
"  .oX***=XXXXXXXXXXXXXXXX+++o.  ",
" .o+X%%%X+X@@@@@@XoX@@@@X++++o. ",
".o+++XXX+++XXXXXXo++XXXX++++++o.",
".o++++++++++++o..o++++++++++++o.",
" .o++++++++++o.  .o++++++++++o. ",
"  .o++++++++o.    .o++++++++o.  ",
"   .o++++++o.      .o++++++o.   ",
"    .o++++o.        .o++++o.    ",
"     .o++o.          .o++o.     ",
"      .oo.            .oo.      ",
"       ..              ..       "
};
