/* XPM */
static char *result[] = {
/* columns rows colors chars-per-pixel */
"32 32 7 1 ",
"  c #211F30",
". c #E68D41",
"X c #F2BC7E",
"o c #FBDFB1",
"O c #D2612F",
"+ c #B22E20",
"@ c white",
/* pixels */
"                                ",
" .XXXXXXXXXXXXXXXXXXXXXXXXXXXXo ",
" O............................X ",
" O............................X ",
" O............................X ",
" O............................X ",
" O............................X ",
" O............................X ",
" O......OOOOOOOOOOOOOOOO......X ",
" O......X++++++++++++++O......X ",
" O......X++++++++++++++O......X ",
" O......XOOOOOOOOOOOO++O......X ",
" O......XOOOOOOOOOOOO++O......X ",
" O......XOOOOOOOOOOOO++O......X ",
" O......XOOOOOOOOOOOO++O......X ",
" O......XOOOOOOOOOOOO++O......X ",
" O......XOOOOOOOOOOOO++O......X ",
" O......XOOOOOOOOOOOO++O......X ",
" O......XOOOOOOOOOOOO++O......X ",
" O......XOOOOOOOOOOOO++O......X ",
" O......XOOOOOOOOOOOO++O......X ",
" O......XOOOOOOOOOOOO++O......X ",
" O......XOOOOOOOOOOOO++O......X ",
" O......XXXXXXXXXXXXXXXO......X ",
" O............................X ",
" O............................X ",
" O............................X ",
" O............................X ",
" O............................X ",
" O............................X ",
" +OOOOOOOOOOOOOOOOOOOOOOOOOOOO. ",
"                                "
};
